<?xml version="1.0" standalone="no"?>
<!DOCTYPE svg PUBLIC "-//W3C//DTD SVG 20010904//EN"
 "http://www.w3.org/TR/2001/REC-SVG-20010904/DTD/svg10.dtd">
<svg version="1.0" xmlns="http://www.w3.org/2000/svg"
 width="512.000000pt" height="512.000000pt" viewBox="0 0 512.000000 512.000000"
 preserveAspectRatio="xMidYMid meet">
<metadata>
Created by potrace 1.16, written by Peter Selinger 2001-2019
</metadata>
<g transform="translate(0.000000,512.000000) scale(0.100000,-0.100000)"
fill="#000000" stroke="none">
<path d="M420 3320 l0 -30 60 0 60 0 0 -220 0 -220 210 0 210 0 0 220 0 220
111 0 110 0 -3 28 -3 27 -377 3 -378 2 0 -30z"/>
<path d="M1677 3343 c-4 -3 -7 -14 -7 -24 0 -15 10 -19 58 -21 l57 -3 3 -222
2 -223 205 0 205 0 0 225 0 225 61 0 c57 0 60 1 57 23 l-3 22 -316 3 c-173 1
-318 -1 -322 -5z"/>
<path d="M2377 3343 c-4 -3 -7 -15 -7 -25 0 -15 8 -18 49 -18 l50 0 19 -52
c11 -29 48 -131 83 -225 l63 -173 218 0 218 0 -75 217 c-41 119 -75 220 -75
225 0 4 32 8 70 8 68 0 70 1 70 25 l0 25 -338 0 c-186 0 -342 -3 -345 -7z"/>
<path d="M3460 3326 c0 -24 2 -25 78 -28 44 -2 76 -7 75 -13 -1 -5 -35 -106
-76 -223 l-74 -213 34 3 35 3 77 220 77 220 52 3 c48 3 53 5 50 25 -3 21 -7
22 -165 25 l-163 2 0 -24z"/>
<path d="M3847 3343 c-4 -3 -7 -14 -7 -24 0 -15 10 -19 58 -21 l57 -3 3 -222
2 -223 205 0 205 0 2 223 3 222 58 3 c54 3 58 5 55 25 l-3 22 -316 3 c-173 1
-318 -1 -322 -5z"/>
<path d="M540 2170 l0 -240 -60 0 c-57 0 -60 -1 -60 -25 l0 -25 558 2 557 3
17 200 c23 286 23 285 -7 285 -20 0 -30 -11 -56 -62 -17 -35 -55 -99 -84 -143
-106 -163 -196 -222 -354 -232 l-91 -6 0 242 0 241 -210 0 -210 0 0 -240z"/>
<path d="M1788 2165 l-3 -240 -57 -3 c-50 -3 -58 -6 -58 -22 0 -19 9 -20 325
-20 316 0 325 1 325 20 0 16 -8 19 -57 22 l-58 3 -3 237 -2 237 -205 3 -205 3
-2 -240z"/>
<path d="M2823 2338 c13 -35 57 -153 97 -263 41 -110 78 -205 82 -212 6 -8 39
-11 95 -10 l86 2 93 265 c51 146 93 267 94 270 0 3 -15 5 -32 4 -31 -1 -34 -5
-54 -59 -23 -64 -24 -63 -48 11 l-16 50 -210 3 -210 2 23 -63z"/>
<path d="M3958 2158 l-3 -233 -57 -3 c-50 -3 -58 -6 -58 -22 0 -19 9 -20 325
-20 316 0 325 1 325 20 0 16 -8 19 -57 22 l-58 3 -3 233 -2 232 -205 0 -205 0
-2 -232z"/>
</g>
</svg>
